<?xml version="1.0" encoding="UTF-8"?>
<svg width="512px" height="360px" viewBox="0 0 512 360" version="1.1" xmlns="http://www.w3.org/2000/svg" xmlns:xlink="http://www.w3.org/1999/xlink">
    <title>Untitled 7</title>
    <g id="Page-1" stroke="none" stroke-width="1" fill="none" fill-rule="evenodd">
        <g id="mail" fill="#9C69E2" fill-rule="nonzero">
            <path d="M467,0 L45,0 C20.137,0 0,20.262 0,45 L0,315 C0,339.885 20.285,360 45,360 L467,360 C491.655,360 512,339.97 512,315 L512,45 C512,20.306 491.943,0 467,0 Z M460.698,30 C451.504,39.145 293.283,196.533 287.82,201.967 C279.32,210.467 268.02,215.147 256,215.147 C243.98,215.147 232.68,210.466 224.152,201.939 C220.478,198.284 64.003,42.634 51.302,30 L460.698,30 Z M30,308.894 L30,51.125 L159.638,180.08 L30,308.894 Z M51.321,330 L180.908,201.237 L202.967,223.18 C217.133,237.346 235.967,245.147 256,245.147 C276.033,245.147 294.867,237.346 309.005,223.208 L331.092,201.237 L460.679,330 L51.321,330 Z M482,308.894 L352.362,180.08 L482,51.125 L482,308.894 Z" id="Shape"></path>
        </g>
    </g>
</svg>